# xmcd
#
# Track frame offsets:
# 180
# 22518
# 39346
# 59118
# 84885
# 127789
# 149660
# 179196
#
# Disc length: 2862 seconds
#
#
# Revision: 3
# Processed by: cddbd v1.5.1PL0 Copyright (c) Steve Scherf et al.
# Submitted via: FreeRIP 2.92 
#
DISCID=660b2c08
DTITLE=Michel Jonasz - La fabuleuse histoire de Mister Swing CD1
DYEAR=1988
DGENRE=Pop
TTITLE0=In the morning
TTITLE1=Mister Swing
TTITLE2=La chanson du producteur
TTITLE3=La chanson du compositeur
TTITLE4=La chanson des musiciens
TTITLE5=Je t'aime
TTITLE6=Poussy
TTITLE7=Fifty fifty
EXTD=
EXTT0=
EXTT1=
EXTT2=
EXTT3=
EXTT4=
EXTT5=
EXTT6=
EXTT7=
PLAYORDER=
